<?xml version="1.0" encoding="utf-8"?>
<?xml-stylesheet type="text/xsl" href="rss1.xsl"?>
<rss version="2.0" xmlns:atom="http://www.w3.org/2005/Atom" xmlns:content="http://purl.org/rss/1.0/modules/content/" xmlns:dc="http://purl.org/dc/elements/1.1/" xmlns:media="http://search.yahoo.com/mrss/">
<channel>
 <title>Getty</title>
 <link>http://www.gettyimg.com/</link>
 <atom:link href="http://www.gettyimg.com/" rel="self" type="application/rss+xml" />

 
                <item>
                <title><![CDATA[【Cinema Center】MOVIE - Because.I.Said.So.2007.1080p.HMAX.WEB-DL.DD5.1.x264-Samuel]]></title>
                <link><![CDATA[https://sharemania.us/threads/because-i-said-so-2007-1080p-hmax-web-dl-dd5-1-x264-samuel.220877/]]></link>
                <description><![CDATA[<article>
<blockquote class="messageText SelectQuoteContainer ugc baseHtml">
<div style="text-align: center"><b><span style="font-size: 26px">Because I Said So</span></b><br>
<a href="https://i.imgur.com/YWaxSKj.jpg" target="_blank" class="externalLink" rel="nofollow"><img src="https://i.imgur.com/e42MjQB.jpg" class="bbCodeImage LbImage" alt="[​IMG]" data-url="https://i.imgur.com/e42MjQB.jpg"></a><br>
<br>
1 HR 41 MIN • PG-13 • 2007 • HD • 5.1 • COMEDY • DRAMA<br>
<br>
<div class="bbCodeBlock bbCodeQuote">
<aside>
<blockquote class="quoteContainer"><div class="quote"><b><span style="font-size: 15px"><span style="font-family: 'Arial'">Description</span></span></b><br>
A mother desperately seeks a suitor for her sweet, but perpetually single youngest daughter in this romantic comedy.</div><div class="quoteExpand">Click to expand...</div></blockquote>
</aside>
</div>
<div class="bbCodeBlock bbCodeQuote">
<aside>
<blockquote class="quoteContainer"><div class="quote"><span style="font-family: 'Arial'"><span style="font-size: 15px"><b>Trailers &amp; Clips</b></span></span><br>
<div data-s9e-mediaembed="googledrive" style="display:inline-block;width:100%;max-width:640px"><div style="overflow:hidden;position:relative;padding-bottom:75%"><iframe allowfullscreen="" scrolling="no" src="//drive.google.com/file/d/1X2NhYnJorO5Eyz8KvpQ1pMoZiJ0bkKDZ/preview" style="border:0;height:100%;left:0;position:absolute;width:100%"></iframe></div></div></div><div class="quoteExpand quoteCut">Click to expand...</div></blockquote>
</aside>
</div>
<div class="bbCodeBlock bbCodeQuote">
<aside>
<blockquote class="quoteContainer"><div class="quote"><span style="font-family: 'Arial'"><span style="font-size: 15px"><b>Accessibility</b></span></span><br>
<b>Audio languages:</b> English (United States), Spanish (Latin American)<br>
<b>Subtitles:</b> English US (SDH), Spanish (Latin American) (CC)</div><div class="quoteExpand">Click to expand...</div></blockquote>
</aside>
</div>
<div class="bbCodeBlock bbCodeQuote">
<aside>
<blockquote class="quoteContainer"><div class="quote"><span style="font-family: 'Arial'"><span style="font-size: 15px"><b>More Information</b></span></span><br>
<b><i><span style="text-decoration: underline">Genres</span></i></b><br>
Comedy, Drama, Romance, Teen<br>
<br>
<b><i><span style="text-decoration: underline">Runtime</span></i></b><br>
1 hr 41 min<br>
<br>
<b><i><span style="text-decoration: underline">About This Movie</span></i></b><br>
Single mother Daphne (Diane Keaton) has married off her two oldest girls, but as her 60th birthday approaches, she's frantic about her youngest daughter Milly (Mandy Moore). Not wanting to see the lovely girl turn into a lonely old maid, Daphne takes her daughter's love life into her own hands--even personally interviewing potential beaus--much to Milly's mortification!<br>
<br>
<b><i><span style="text-decoration: underline">Cast &amp; Crew</span></i></b><br>
Daphne • Diane Keaton<br>
Milly • Mandy Moore<br>
Johnny • Gabriel Macht<br>
Jason • Tom Everett Scott<br>
Maggie • Lauren Graham<br>
Mae • Piper Perabo<br>
Joe • Stephen Collins<br>
<br>
<b><i><span style="text-decoration: underline">Producers</span></i></b><br>
Producer • Paul Brooks<br>
Producer • Jessie Nelson<br>
Executive Producer • Scott Niemeyer<br>
Executive Producer • Norm Waitt<br>
Executive Producer • Michael Flynn<br>
<br>
<b><i><span style="text-decoration: underline">Directors</span></i></b><br>
Directed By • Michael Lehmann<br>
<br>
<b><i><span style="text-decoration: underline">Writers</span></i></b><br>
Written by • Karen Leigh Hopkins<br>
Written by • Jessie Nelson<br>
<br>
<b><i><span style="text-decoration: underline">Music</span></i></b><br>
Composer • David Kitay<br>
Yes, My Darling Daughter • Artist: Sandie Shaw<br>
Composer: Jack Lawrence<br>
Feel Like Making Love • Composer: Gene McDaniels<br>
Days Like This • Artist: Van Morrison<br>
Composer: Van Morrison<br>
Artist: Honey Cone<br>
Composer: General Johnson, Gregory Perry, Barney Perkins<br>
Want Ads • Artist: Honey Cone<br>
Composer: General Johnson, Gregory Perry, Barney Perkins<br>
Bossaland • Artist: Pete Snell<br>
Composer: Pete Snell<br>
Momma Told Me • Artist: Crystal Waters<br>
Composer: Jay Steinhour, Teddy Douglas, Gary Hudgins, Anthony Blunt, Crystal Waters<br>
Heaven • Artist: Bittersweet<br>
Composer: Shana Halligan, Kiran Shahani, Michael Railton<br>
Mama Said • Artist: The Shirelles<br>
Composer: Luther Dixon, Willie Denson<br>
I Scream 4 Ice Cream • Artist: Vermicious Kinid<br>
Composer: Hugh Plath, Todd Bozung<br>
One Man Band • Artist: Pete Snell<br>
Composer: Pete Snell<br>
Black Horse and a Cherry Tree • Artist: KT Tunstall<br>
Composer: KT Tunstall<br>
I Met Him On Sunday • Composer: Shirley Owens, Addie harris, Doris Coley, Beverly Lee<br>
Sid's Revenge • Artist: Todd Bozung<br>
Composer: Todd Bozung<br>
Say What • Composer: James Hill, Les Brown<br>
That's Alright Mama • Artist: Rick Nelson<br>
Composer: Arthur Crudup<br>
World Spins Madly On • Artist: The Weepies<br>
Composer: Deb Talan, Steve Tannen<br>
<br>
<b><i><span style="text-decoration: underline">Rating Information</span></i></b><br>
PG-13</div><div class="quoteExpand quoteCut">Click to expand...</div></blockquote>
</aside>
</div>
<div class="bbCodeBlock bbCodeQuote">
<aside>
<blockquote class="quoteContainer"><div class="quote"><b><span style="font-size: 15px"><span style="font-family: 'Arial'">Source</span></span></b><br>
<img src="https://i.imgur.com/kP0bkE8.png" class="bbCodeImage LbImage" alt="[​IMG]" data-url="https://i.imgur.com/kP0bkE8.png" style=""></div><div class="quoteExpand">Click to expand...</div></blockquote>
</aside>
</div>
<div class="bbCodeBlock bbCodeQuote">
<aside>
<blockquote class="quoteContainer"><div class="quote"><b><span style="font-size: 15px">Release Name</span></b><br>
Because.I.Said.So.2007.1080p.HMAX.WEB-DL.DD5.1.x264-Samuel</div><div class="quoteExpand">Click to expand...</div></blockquote>
</aside>
</div>
<div class="ToggleTriggerAnchor bbCodeSpoilerContainer">
<button type="button" class="button bbCodeSpoilerButton ToggleTrigger Tooltip JsOnly" data-target="> .SpoilerTarget"><span>Spoiler: <span class="SpoilerTitle">Media Information</span></span></button>
<div class="SpoilerTarget bbCodeSpoilerText">General<br>
Complete name : Because.I.Said.So.2007.1080p.HMAX.WEB-DL.DD5.1.x264-Samuel.mkv<br>
Format : Matroska<br>
Format version : Version 4<br>
File size : 6.37 GiB<br>
Duration : 1 h 41 min<br>
Overall bit rate mode : Variable<br>
Overall bit rate : 9 012 kb/s<br>
Frame rate : 23.976 FPS<br>
Encoded date : 2023-05-14 05:26:07 UTC<br>
Writing application : mkvmerge v72.0.0 ('Minuano (Six-eight)') 64-bit<br>
Writing library : libebml v1.4.4 + libmatroska v1.7.1<br>
<br>
Video<br>
ID : 1<br>
Format : AVC<br>
Format/Info : Advanced Video Codec<br>
Format profile : High@L4<br>
Format settings : CABAC / 4 Ref Frames<br>
Format settings, CABAC : Yes<br>
Format settings, Reference frames : 4 frames<br>
Codec ID : V_MPEG4/ISO/AVC<br>
Duration : 1 h 41 min<br>
Bit rate mode : Variable<br>
Bit rate : 8 250 kb/s<br>
Maximum bit rate : 12.4 Mb/s<br>
Width : 1 920 pixels<br>
Height : 1 080 pixels<br>
Display aspect ratio : 16:9<br>
Frame rate mode : Constant<br>
Frame rate : 23.976 (24000/1001) FPS<br>
Color space : YUV<br>
Chroma subsampling : 4:2:0<br>
Bit depth : 8 bits<br>
Scan type : Progressive<br>
Bits/(Pixel*Frame) : 0.166<br>
Stream size : 5.83 GiB (91%)<br>
Writing library : x264 core 157 r2965 861cec4<br>
Encoding settings : cabac=1 / ref=4 / deblock=1:0:0 / analyse=0x3:0x113 / me=hex / subme=7 / psy=1 / psy_rd=1.00:0.00 / mixed_ref=1 / me_range=16 / chroma_me=1 / trellis=1 / 8x8dct=1 / cqm=0 / deadzone=21,11 / fast_pskip=1 / chroma_qp_offset=-2 / threads=34 / lookahead_threads=5 / sliced_threads=0 / nr=0 / decimate=1 / interlaced=0 / bluray_compat=0 / constrained_intra=0 / bframes=3 / b_pyramid=2 / b_adapt=1 / b_bias=0 / direct=1 / weightb=1 / open_gop=0 / weightp=2 / keyint=96 / keyint_min=96 / scenecut=40 / intra_refresh=0 / rc_lookahead=40 / rc=2pass / mbtree=1 / bitrate=8250 / ratetol=1.0 / qcomp=0.60 / qpmin=0 / qpmax=69 / qpstep=4 / cplxblur=20.0 / qblur=0.5 / vbv_maxrate=12375 / vbv_bufsize=6187 / nal_hrd=vbr / filler=0 / ip_ratio=1.40 / aq=1:1.00<br>
Default : Yes<br>
Forced : No<br>
Color range : Limited<br>
Color primaries : BT.709<br>
Transfer characteristics : BT.709<br>
Matrix coefficients : BT.709<br>
<br>
Audio #1<br>
ID : 2<br>
Format : AC-3<br>
Format/Info : Audio Coding 3<br>
Commercial name : Dolby Digital<br>
Codec ID : A_AC3<br>
Duration : 1 h 41 min<br>
Bit rate mode : Constant<br>
Bit rate : 384 kb/s<br>
Channel(s) : 6 channels<br>
Channel layout : L R C LFE Ls Rs<br>
Sampling rate : 48.0 kHz<br>
Frame rate : 31.250 FPS (1536 SPF)<br>
Compression mode : Lossy<br>
Stream size : 278 MiB (4%)<br>
Language : English<br>
Service kind : Complete Main<br>
Default : Yes<br>
Forced : No<br>
<br>
Audio #2<br>
ID : 3<br>
Format : AC-3<br>
Format/Info : Audio Coding 3<br>
Commercial name : Dolby Digital<br>
Codec ID : A_AC3<br>
Duration : 1 h 41 min<br>
Bit rate mode : Constant<br>
Bit rate : 384 kb/s<br>
Channel(s) : 2 channels<br>
Channel layout : L R<br>
Sampling rate : 48.0 kHz<br>
Frame rate : 31.250 FPS (1536 SPF)<br>
Compression mode : Lossy<br>
Stream size : 278 MiB (4%)<br>
Title : Latin American<br>
Language : Spanish<br>
Service kind : Complete Main<br>
Default : No<br>
Forced : No<br>
<br>
Text #1<br>
ID : 4<br>
Format : UTF-8<br>
Codec ID : S_TEXT/UTF8<br>
Codec ID/Info : UTF-8 Plain Text<br>
Duration : 1 h 35 min<br>
Bit rate : 102 b/s<br>
Frame rate : 0.354 FPS<br>
Count of elements : 2023<br>
Stream size : 71.5 KiB (0%)<br>
Title : SDH<br>
Language : English<br>
Default : No<br>
Forced : No<br>
<br>
Text #2<br>
ID : 5<br>
Format : UTF-8<br>
Codec ID : S_TEXT/UTF8<br>
Codec ID/Info : UTF-8 Plain Text<br>
Duration : 1 h 35 min<br>
Bit rate : 92 b/s<br>
Frame rate : 0.392 FPS<br>
Count of elements : 2241<br>
Stream size : 64.2 KiB (0%)<br>
Title : Latin American<br>
Language : Spanish<br>
Default : No<br>
Forced : No</div>
</div><br>
<b>Screenshots</b><br>
<img src="https://i.imgur.com/s8sMEpY.png" class="bbCodeImage LbImage" alt="[​IMG]" data-url="https://i.imgur.com/s8sMEpY.png" style=""><br>
<br>
<b>Download</b><br>
<div class="bbCodeBlock bbCodeVfcHH HiddenContent">
<div class="attribution type">Hidden Content:</div>
<blockquote>You must reply before you can see the hidden data contained here.</blockquote>
</div></div>
<div class="messageTextEndMarker">&nbsp;</div>
</blockquote>
</article>]]></description>
                <author><![CDATA[Samuel]]></author>
                </item>

                </channel></rss>